<svg width="20" height="20" viewBox="0 0 20 20" fill="none" xmlns="http://www.w3.org/2000/svg">
<path d="M7.50004 5.83337H5.00004C4.55801 5.83337 4.13409 6.00897 3.82153 6.32153C3.50897 6.63409 3.33337 7.05801 3.33337 7.50004V15C3.33337 15.4421 3.50897 15.866 3.82153 16.1786C4.13409 16.4911 4.55801 16.6667 5.00004 16.6667H12.5C12.9421 16.6667 13.366 16.4911 13.6786 16.1786C13.9911 15.866 14.1667 15.4421 14.1667 15V12.5" stroke="#F3A919" stroke-width="1.5" stroke-linecap="round" stroke-linejoin="round"/>
<path d="M7.5 12.5H10L17.0833 5.41669C17.4149 5.08517 17.6011 4.63553 17.6011 4.16669C17.6011 3.69785 17.4149 3.24821 17.0833 2.91669C16.7518 2.58517 16.3022 2.39893 15.8333 2.39893C15.3645 2.39893 14.9149 2.58517 14.5833 2.91669L7.5 10V12.5Z" stroke="#F3A919" stroke-width="1.5" stroke-linecap="round" stroke-linejoin="round"/>
<path d="M13.3334 4.16669L15.8334 6.66669" stroke="#F3A919" stroke-width="1.5" stroke-linecap="round" stroke-linejoin="round"/>
</svg>
