<svg width="16" height="16" viewBox="0 0 16 16" fill="none" xmlns="http://www.w3.org/2000/svg">
<path d="M5.89407 1.5C5.89407 1.36739 5.94954 1.24021 6.04827 1.14645C6.14701 1.05268 6.28092 1 6.42055 1C6.56018 1 6.6941 1.05268 6.79283 1.14645C6.89157 1.24021 6.94703 1.36739 6.94703 1.5V13.793C6.94701 13.8918 6.91616 13.9884 6.85837 14.0706C6.80059 14.1528 6.71846 14.2168 6.62236 14.2547C6.52626 14.2926 6.42049 14.3026 6.31842 14.2834C6.21635 14.2642 6.12254 14.2168 6.04886 14.147L1.15467 9.5C1.10564 9.45355 1.06675 9.39838 1.0402 9.33763C1.01366 9.27689 1 9.21177 1 9.146C1 9.08023 1.01366 9.01511 1.0402 8.95437C1.06675 8.89362 1.10564 8.83845 1.15467 8.792H1.15678C1.25547 8.69857 1.38913 8.64611 1.52848 8.64611C1.66782 8.64611 1.80149 8.69857 1.90017 8.792L5.89407 12.588V1.5ZM9.05297 2.207C9.05319 2.10827 9.0842 2.01181 9.14206 1.92979C9.19993 1.84777 9.28207 1.78386 9.37813 1.7461C9.47419 1.70835 9.57986 1.69845 9.68184 1.71765C9.78381 1.73685 9.87752 1.7843 9.95114 1.854L14.8453 6.5C14.8944 6.54645 14.9333 6.60162 14.9598 6.66237C14.9863 6.72311 15 6.78823 15 6.854C15 6.91977 14.9863 6.98489 14.9598 7.04563C14.9333 7.10638 14.8944 7.16155 14.8453 7.208H14.8432C14.7445 7.30143 14.6109 7.35389 14.4715 7.35389C14.3322 7.35389 14.1985 7.30143 14.0998 7.208L10.1059 3.414V14.5C10.1059 14.6326 10.0505 14.7598 9.95173 14.8536C9.85299 14.9473 9.71908 15 9.57945 15C9.43982 15 9.3059 14.9473 9.20717 14.8536C9.10843 14.7598 9.05297 14.6326 9.05297 14.5V2.207Z" fill="#64748B"/>
</svg>
