<svg width="28" height="28" viewBox="0 0 28 28" fill="none" xmlns="http://www.w3.org/2000/svg">
<g clip-path="url(#clip0_1_1138)">
<path d="M13.9828 12.834C16.0716 13.282 18.128 11.9519 18.576 9.86313C19.024 7.77437 17.6939 5.71794 15.6051 5.26995C13.5164 4.82197 11.46 6.15207 11.012 8.24083C10.564 10.3296 11.8941 12.386 13.9828 12.834Z" stroke="white" stroke-width="1.74061" stroke-linecap="round" stroke-linejoin="round"/>
<path d="M6.75457 21.1737C8.84333 21.6216 10.8998 20.2915 11.3477 18.2028C11.7957 16.114 10.4656 14.0576 8.37687 13.6096C6.28812 13.1616 4.23168 14.4917 3.7837 16.5805C3.33571 18.6692 4.66582 20.7257 6.75457 21.1737Z" stroke="white" stroke-width="1.74061" stroke-linecap="round" stroke-linejoin="round"/>
<path d="M17.1552 23.4044C19.244 23.8524 21.3004 22.5223 21.7484 20.4335C22.1964 18.3447 20.8663 16.2883 18.7775 15.8403C16.6888 15.3923 14.6323 16.7224 14.1843 18.8112C13.7363 20.9 15.0665 22.9564 17.1552 23.4044Z" stroke="white" stroke-width="1.74061" stroke-linecap="round" stroke-linejoin="round"/>
</g>
<defs>
<clipPath id="clip0_1_1138">
<rect width="23.2082" height="23.2082" fill="white" transform="translate(4.86694) rotate(12.1051)"/>
</clipPath>
</defs>
</svg>
