<svg width="24" height="24" viewBox="0 0 24 24" fill="none" xmlns="http://www.w3.org/2000/svg">
<path d="M8.70299 10.6371C10.8392 10.6371 12.571 8.90529 12.571 6.76903C12.571 4.63278 10.8392 2.901 8.70299 2.901C6.56674 2.901 4.83496 4.63278 4.83496 6.76903C4.83496 8.90529 6.56674 10.6371 8.70299 10.6371Z" stroke="white" stroke-width="1.74061" stroke-linecap="round" stroke-linejoin="round"/>
<path d="M2.90112 20.3071V18.3731C2.90112 17.3472 3.30865 16.3634 4.03404 15.638C4.75944 14.9126 5.74329 14.5051 6.76915 14.5051H10.6372C11.6631 14.5051 12.6469 14.9126 13.3723 15.638C14.0977 16.3634 14.5052 17.3472 14.5052 18.3731V20.3071" stroke="white" stroke-width="1.74061" stroke-linecap="round" stroke-linejoin="round"/>
<path d="M15.4724 10.6371L17.4064 12.5711L21.2745 8.70306" stroke="white" stroke-width="1.74061" stroke-linecap="round" stroke-linejoin="round"/>
</svg>
