<svg width="8" height="8" viewBox="0 0 8 8" fill="none" xmlns="http://www.w3.org/2000/svg">
<path d="M4 4C3.45 4 2.97917 3.80417 2.5875 3.4125C2.19583 3.02083 2 2.55 2 2C2 1.45 2.19583 0.979167 2.5875 0.5875C2.97917 0.195833 3.45 0 4 0C4.55 0 5.02083 0.195833 5.4125 0.5875C5.80417 0.979167 6 1.45 6 2C6 2.55 5.80417 3.02083 5.4125 3.4125C5.02083 3.80417 4.55 4 4 4ZM0 8V6.6C0 6.31667 0.0730001 6.05633 0.219 5.819C0.365 5.58167 0.558667 5.40033 0.8 5.275C1.31667 5.01667 1.84167 4.823 2.375 4.694C2.90833 4.565 3.45 4.50033 4 4.5C4.55 4.49967 5.09167 4.56433 5.625 4.694C6.15833 4.82367 6.68333 5.01733 7.2 5.275C7.44167 5.4 7.6355 5.58133 7.7815 5.819C7.9275 6.05667 8.00033 6.317 8 6.6V8H0Z" fill="#F3A919"/>
</svg>
